<svg width="407" height="729" viewBox="0 0 407 729" fill="none" xmlns="http://www.w3.org/2000/svg">
<g clip-path="url(#clip0)">
<path d="M368.674 570.998C414.576 570.998 449.044 592.489 466.324 616.633C474.605 628.205 404.088 632.549 404.088 657.785H54.0703C52.8299 573.241 23.4247 606.351 54.0704 582C112.005 563.933 218.501 641.727 244 636C289.473 625.786 304.075 570.998 368.674 570.998Z" fill="#B34CE3" fill-opacity="0.28"/>
<path d="M218.354 584.764C235.408 584.764 261.872 627.552 267.206 646.586C269.762 655.708 288 638.107 288 658H93.0056C92.6227 591.353 116.715 573.545 130 569.5C147.629 564.132 167.792 633.258 175.663 628.743C189.699 620.691 196.749 584.764 218.354 584.764Z" fill="#E3B2FB" fill-opacity="0.46"/>
<path d="M181.088 596.5C208.088 596.5 292.25 636.1 297.5 658.5C303.75 644.827 269.022 642.002 276 663L69.4878 658.5C57.4397 582.034 29 658.5 79 628.5C96.6034 611.739 82.1337 638.313 89.8814 633C103.698 623.524 154.088 596.5 181.088 596.5Z" fill="#B953E9" fill-opacity="0.46"/>
<path d="M343.5 555.5C384.5 555.5 392.959 570.001 410.313 597.016C418.63 609.962 410.276 634.765 410.276 663H-0.0399885C-9.50001 562 -25.1443 561.842 37 568.5C93 574.5 190.892 654.908 216.5 648.5C262.168 637.072 263.85 555.5 343.5 555.5Z" fill="#6B16D7"/>
</g>
<defs>
<clipPath id="clip0">
<rect width="407" height="838" fill="white"/>
</clipPath>
</defs>
</svg>
