<svg width="2400" height="287" viewBox="0 0 2400 287" fill="none" xmlns="http://www.w3.org/2000/svg">
<path d="M2164.75 41.9472C2396.75 25.9472 2558.34 77.4734 2676.75 138.947C2733.5 168.408 2676.75 221.947 2676.75 286.198L278.251 286.198C269.751 70.9471 68.2511 175.947 278.251 113.947C675.251 67.947 1170.52 300.78 1345.25 286.198C1656.85 260.193 1940.83 57.3899 2164.75 41.9472Z" fill="#B34CE3" fill-opacity="0.28"/>
<path d="M1532.04 95.8563C1659.25 95.8563 1856.65 207.448 1896.44 257.088C1915.5 280.878 2051.54 234.974 2051.54 286.856H597.042C594.186 113.042 738.449 84.406 837.542 73.8563C969.042 59.8563 1154.89 222.329 1213.6 210.554C1318.3 189.555 1370.88 95.8563 1532.04 95.8563Z" fill="#E3B2FB" fill-opacity="0.46"/>
<path d="M1253.22 89C1378.5 89 1552.82 236.517 1592 286.132C1610.78 309.91 1761.5 234.276 1761.5 286.132H428.586C425.773 112.406 430.581 180.17 500.075 130.131C631.451 93.0044 861.678 251.391 919.5 239.621C1022.62 218.633 1094.5 89 1253.22 89Z" fill="#B953E9" fill-opacity="0.46"/>
<path d="M1895.75 1.84675C2127.75 -14.1533 2283.34 77.3731 2401.75 138.847C2458.5 168.307 2401.5 224.749 2401.5 289H-1.00001C-9.50008 73.7494 -206.749 140.347 3.25119 78.3468C400.251 32.3468 895.269 291.082 1070 276.5C1381.6 250.495 1671.83 17.2895 1895.75 1.84675Z" fill="#6B16D7"/>
</svg>
