<svg width="2400" height="323" viewBox="0 0 2400 323" fill="none" xmlns="http://www.w3.org/2000/svg">
<path d="M1873.34 282.772C2024.6 282.772 2035.81 168.234 2083.13 232.405C2105.8 263.158 2157 232.257 2157 299.327L-216.5 319C-219.896 94.3054 458.856 -83.257 784.56 40.8723C932.398 97.2149 1207.26 271.491 1428.27 176.33C1649.28 81.1686 1681.69 282.772 1873.34 282.772Z" fill="#504DF2" fill-opacity="0.32"/>
<path d="M1575.26 28.4245C1822.83 9.83308 1995.26 69.7047 2121.62 141.135C2182.17 175.367 2121.62 237.578 2121.62 312.235L-437.826 312.235C-446.897 62.1214 -661.918 184.127 -437.827 112.086C-14.1869 58.6354 514.317 329.179 700.773 312.235C1033.28 282.018 1336.32 46.3684 1575.26 28.4245Z" fill="#F2D54D" fill-opacity="0.28"/>
<path d="M1098.5 92C1265 92 1498 262.007 1617.16 317.332C1647.83 345.615 1894 255.648 1894 317.332H-283.043C-287.637 110.682 -279.784 191.289 -166.281 131.767C48.2954 87.6047 424.324 276.006 518.765 262.007C687.184 237.041 879.5 92 1098.5 92Z" fill="#6D6BFF" fill-opacity="0.86"/>
<path d="M1985.28 83.5465C2213.95 3.0486 2223.83 11.7019 2545.89 146.045C2606.89 266.194 2545.89 250.29 2545.89 314.539H-21.2227C-30.3052 99.2951 -245.611 100.546 -21.2227 38.5481C402.978 -7.45043 984.908 329.121 1171.61 314.539C1504.56 288.535 1760.81 162.57 1985.28 83.5465Z" fill="#504DF2"/>
</svg>
