<svg width="768" height="712" viewBox="0 0 768 712" fill="none" xmlns="http://www.w3.org/2000/svg">
<g clip-path="url(#clip0)">
<path d="M692.322 571C777.602 571 841.64 592.543 873.744 616.748C889.129 628.347 758.116 632.702 758.116 658H107.825C105.52 573.249 50.8888 606.44 107.825 582.029C215.461 563.917 413.318 641.903 460.692 636.162C545.175 625.923 572.304 571 692.322 571Z" fill="#B34CE3" fill-opacity="0.28"/>
<path d="M413.351 585.422C445.097 585.422 494.362 627.826 504.291 646.688C509.05 655.728 543 638.285 543 658H180.008C179.296 591.952 224.145 574.304 248.875 570.295C281.693 564.975 319.227 633.48 333.879 629.006C360.009 621.026 373.131 585.422 413.351 585.422Z" fill="#E3B2FB" fill-opacity="0.46"/>
<path d="M344.011 597C394.244 597 550.824 636.302 560.592 658.534C572.221 644.964 507.609 642.159 520.592 663L136.381 658.534C113.966 582.643 61.0544 658.534 154.078 628.759C186.829 612.124 159.908 638.499 174.323 633.226C200.029 623.821 293.778 597 344.011 597Z" fill="#B953E9" fill-opacity="0.46"/>
<path d="M642.67 556C720.791 556 736.909 570.434 769.975 597.323C785.822 610.209 769.905 634.897 769.905 663H-11.9056C-29.9306 562.47 -59.7391 562.312 58.6699 568.94C165.372 574.912 351.893 654.946 400.687 648.567C487.703 637.193 490.906 556 642.67 556Z" fill="#6B16D7"/>
</g>
<defs>
<clipPath id="clip0">
<rect width="768" height="818.029" fill="white" transform="translate(0 0.373657)"/>
</clipPath>
</defs>
</svg>
