<svg width="265" height="38" viewBox="0 0 265 38" fill="none" xmlns="http://www.w3.org/2000/svg">
<path d="M11.5278 23.3021C10.8187 23.3021 10.1805 22.8646 9.8969 22.2083H4.8623C5.14594 24.3229 6.63505 26.0729 8.62052 26.5833C7.98234 29.2083 9.32962 31.6146 11.386 32.7083C11.4569 35.625 13.726 37.8854 16.5624 37.8854C18.477 37.8854 20.1788 36.7917 21.1006 35.1146V26.4375H17.4133V28.6979C18.0515 28.9896 18.477 29.6458 18.477 30.375C18.477 31.3958 17.697 32.1979 16.7042 32.1979C15.7115 32.1979 14.9315 31.3958 14.9315 30.375C14.9315 29.6458 15.357 28.9896 15.9951 28.6979V24.9792H21.1716V18.4896H17.0588V15.5H15.357C15.0733 16.1563 14.4351 16.5938 13.726 16.5938C12.7333 16.5938 11.9533 15.7917 11.9533 14.7708C11.9533 13.75 12.7333 12.9479 13.726 12.9479C14.4351 12.9479 15.0733 13.3854 15.357 14.0417H18.477V17.0313H21.1716V7.77083C20.2497 6.09375 18.6188 5 16.6333 5C13.8678 5 11.5278 7.26042 11.4569 10.1771C9.32962 11.1979 8.05325 13.75 8.69143 16.3021C6.70596 16.8854 5.21685 18.5625 4.93321 20.6771H9.96781C10.2514 20.0208 10.8896 19.5833 11.5987 19.5833C12.5915 19.5833 13.3715 20.3854 13.3715 21.4063C13.3715 22.4271 12.5206 23.3021 11.5278 23.3021Z" fill="#2E52AA"/>
<path d="M35.07 16.3021C35.7081 13.8229 34.4318 11.2708 32.3045 10.1771C32.2336 7.26042 29.8936 5 27.1281 5C25.2135 5 23.5117 6.09375 22.5898 7.77083V11.7813H26.1353C26.419 11.125 27.0572 10.6875 27.7663 10.6875C28.759 10.6875 29.539 11.4896 29.539 12.5104C29.539 13.5313 28.759 14.3333 27.7663 14.3333C27.0572 14.3333 26.419 13.8958 26.1353 13.2396H22.5898V30.7396H25.2844V27.3125H28.5463C28.8299 26.6563 29.4681 26.2188 30.1772 26.2188C31.1699 26.2188 31.9499 27.0208 31.9499 28.0417C31.9499 29.0625 31.1699 29.8646 30.1772 29.8646C29.4681 29.8646 28.8299 29.4271 28.5463 28.7708H26.7026V32.1979H22.5898V35.1146C23.5117 36.7917 25.1426 37.8854 27.1281 37.8854C29.9645 37.8854 32.2336 35.5521 32.3045 32.7083C34.4318 31.6875 35.7081 29.2083 35.07 26.5833C35.2827 26.5104 35.4245 26.4375 35.6372 26.3646V23.4479H29.6808V19.8021C29.0426 19.5104 28.6172 18.8542 28.6172 18.125C28.6172 17.1042 29.3972 16.3021 30.3899 16.3021C31.3827 16.3021 32.1627 17.1042 32.1627 18.125C32.1627 18.8542 31.7372 19.5104 31.099 19.8021V21.9896H36.9845V25.4896C38.19 24.6146 38.8991 23.0833 38.8991 21.4792C38.8991 19.0729 37.2682 16.9583 35.07 16.3021Z" fill="#2E52AA"/>
<path d="M59.6813 12.6662C66.0889 12.6953 69.2927 14.8382 69.2927 19.0947V31.0773C69.2927 33.293 69.5479 34.8965 70.0582 35.8878H63.9342C63.7073 35.188 63.5656 34.4592 63.5089 33.7012C61.7227 35.5671 59.2561 36.5 56.109 36.5C53.8125 36.5 51.9908 35.9023 50.6441 34.707C49.2974 33.5117 48.624 31.8499 48.624 29.7216C48.624 27.6516 49.2619 26.0481 50.5378 24.9111C51.842 23.7157 54.2094 22.9577 57.64 22.637C60.0783 22.3746 61.6235 22.0466 62.2756 21.6531C62.9277 21.2595 63.2537 20.6545 63.2537 19.8382C63.2537 18.8178 62.956 18.0598 62.3606 17.5641C61.7652 17.0685 60.7729 16.8207 59.3836 16.8207C58.1078 16.8207 57.1438 17.0904 56.4917 17.6297C55.8396 18.1691 55.4569 19.0364 55.3435 20.2318H49.3045C49.4462 17.7536 50.4386 15.8732 52.2814 14.5904C54.1243 13.3076 56.591 12.6662 59.6813 12.6662V12.6662ZM54.663 29.4592C54.663 31.3834 55.8963 32.3455 58.363 32.3455C61.5951 32.3163 63.2254 30.6108 63.2537 27.2289V24.8236C62.7717 25.3192 61.5526 25.6837 59.5963 25.9169C57.8952 26.121 56.6477 26.4781 55.8538 26.9883C55.06 27.4985 54.663 28.3222 54.663 29.4592V29.4592ZM81.9363 13.2784V26.0918C81.9363 27.8411 82.2057 29.1968 82.7444 30.1589C83.2831 31.121 84.3037 31.602 85.8064 31.602C87.4792 31.602 88.677 31.0918 89.4 30.0714C90.123 29.051 90.4845 27.4184 90.4845 25.1735V13.2784H96.5235V35.8878H90.7822V32.7391H90.6546C89.1519 35.2463 86.8979 36.5 83.8926 36.5C81.0291 36.5 78.9806 35.7493 77.7473 34.2478C76.514 32.7464 75.8973 30.4359 75.8973 27.3163V13.2784H81.9363V13.2784ZM110.698 6.5V13.2784H115.121V17.4329H110.698V28.6283C110.698 29.6778 110.868 30.3775 111.208 30.7274C111.549 31.0773 112.229 31.2522 113.25 31.2522C113.987 31.2522 114.611 31.1939 115.121 31.0773V35.9315C114.27 36.0773 113.08 36.1501 111.549 36.1501C109.224 36.1501 107.494 35.742 106.36 34.9257C105.226 34.1093 104.659 32.6953 104.659 30.6837V17.4329H101.002V13.2784H104.659V6.5H110.698V6.5ZM130.614 12.6662C134.13 12.6662 136.908 13.7668 138.95 15.9679C140.991 18.1691 142.012 21.0481 142.012 24.605C142.012 28.191 140.97 31.07 138.886 33.242C136.802 35.414 134.045 36.5 130.614 36.5C127.127 36.5 124.362 35.3994 122.321 33.1982C120.28 30.9971 119.259 28.1326 119.259 24.605C119.259 20.9606 120.301 18.0598 122.385 15.9023C124.469 13.7449 127.212 12.6662 130.614 12.6662V12.6662ZM125.298 24.605C125.298 26.9082 125.752 28.6866 126.659 29.9402C127.566 31.1939 128.885 31.8207 130.614 31.8207C132.4 31.8207 133.74 31.1793 134.633 29.8965C135.526 28.6137 135.973 26.8499 135.973 24.605C135.973 22.2726 135.512 20.4796 134.59 19.2259C133.669 17.9723 132.329 17.3455 130.572 17.3455C128.87 17.3455 127.566 17.9723 126.659 19.2259C125.752 20.4796 125.298 22.2726 125.298 24.605V24.605ZM160.524 12.6662C163.728 12.6662 165.868 13.9198 166.946 16.4271C168.619 13.9198 170.844 12.6662 173.623 12.6662C176.373 12.6662 178.393 13.3805 179.683 14.809C180.973 16.2376 181.618 18.2055 181.618 20.7128V35.8878H175.579V22.812C175.579 20.8294 175.288 19.4592 174.707 18.7012C174.126 17.9431 173.183 17.5641 171.879 17.5641C169.186 17.5641 167.839 19.4592 167.839 23.2493V35.8878H161.8V22.5496C161.8 20.6254 161.502 19.3134 160.907 18.6137C160.311 17.914 159.39 17.5641 158.143 17.5641C156.98 17.5641 156.009 18.0379 155.229 18.9854C154.45 19.9329 154.06 21.1793 154.06 22.7245V35.8878H148.021V13.2784H153.72V16.3396H153.805C155.477 13.8907 157.717 12.6662 160.524 12.6662V12.6662ZM198.429 12.6662C204.837 12.6953 208.041 14.8382 208.041 19.0947V31.0773C208.041 33.293 208.296 34.8965 208.806 35.8878H202.682C202.455 35.188 202.314 34.4592 202.257 33.7012C200.471 35.5671 198.004 36.5 194.857 36.5C192.561 36.5 190.739 35.9023 189.392 34.707C188.045 33.5117 187.372 31.8499 187.372 29.7216C187.372 27.6516 188.01 26.0481 189.286 24.9111C190.59 23.7157 192.957 22.9577 196.388 22.637C198.826 22.3746 200.372 22.0466 201.024 21.6531C201.676 21.2595 202.002 20.6545 202.002 19.8382C202.002 18.8178 201.704 18.0598 201.109 17.5641C200.513 17.0685 199.521 16.8207 198.132 16.8207C196.856 16.8207 195.892 17.0904 195.24 17.6297C194.588 18.1691 194.205 19.0364 194.092 20.2318H188.053C188.194 17.7536 189.187 15.8732 191.03 14.5904C192.872 13.3076 195.339 12.6662 198.429 12.6662V12.6662ZM193.411 29.4592C193.411 31.3834 194.644 32.3455 197.111 32.3455C200.343 32.3163 201.973 30.6108 202.002 27.2289V24.8236C201.52 25.3192 200.301 25.6837 198.344 25.9169C196.643 26.121 195.396 26.4781 194.602 26.9883C193.808 27.4985 193.411 28.3222 193.411 29.4592V29.4592ZM222.3 6.5V13.2784H226.723V17.4329H222.3V28.6283C222.3 29.6778 222.471 30.3775 222.811 30.7274C223.151 31.0773 223.832 31.2522 224.852 31.2522C225.589 31.2522 226.213 31.1939 226.723 31.0773V35.9315C225.873 36.0773 224.682 36.1501 223.151 36.1501C220.826 36.1501 219.097 35.742 217.963 34.9257C216.829 34.1093 216.261 32.6953 216.261 30.6837V17.4329H212.604V13.2784H216.261V6.5H222.3V6.5ZM241.706 12.6662C243.776 12.6662 245.619 13.1618 247.235 14.1531C248.851 15.1443 250.12 16.5802 251.041 18.4606C251.962 20.3411 252.423 22.5058 252.423 24.9548C252.423 25.188 252.409 25.5671 252.381 26.0918H236.518C236.574 27.8994 237.035 29.3061 237.9 30.312C238.765 31.3178 240.09 31.8207 241.876 31.8207C242.982 31.8207 243.996 31.5364 244.917 30.9679C245.838 30.3994 246.427 29.707 246.682 28.8907H251.998C250.439 33.9636 247.008 36.5 241.706 36.5C239.693 36.4708 237.829 36.0189 236.114 35.1443C234.398 34.2697 233.03 32.9067 232.01 31.0554C230.989 29.2041 230.479 27.0539 230.479 24.605C230.479 22.3017 230.996 20.2026 232.031 18.3076C233.066 16.4125 234.441 14.9985 236.156 14.0656C237.871 13.1327 239.721 12.6662 241.706 12.6662V12.6662ZM246.342 22.156C246.058 20.465 245.534 19.2405 244.768 18.4825C244.003 17.7245 242.911 17.3455 241.493 17.3455C240.019 17.3455 238.857 17.7755 238.006 18.6356C237.156 19.4956 236.659 20.6691 236.518 22.156H246.342ZM264.812 29.1531V35.8878H258.135V29.1531H264.812Z" fill="black"/>
</svg>
